<svg width="89" height="88" viewBox="0 0 89 88" fill="none" xmlns="http://www.w3.org/2000/svg">
<g filter="url(#filter0_d_735_2031)">
<rect x="16.1104" y="16" width="56" height="56" rx="28" fill="#1D1F22"/>
<path fill-rule="evenodd" clip-rule="evenodd" d="M43.1104 39C43.1104 40.1046 42.2149 41 41.1104 41C40.0058 41 39.1104 40.1046 39.1104 39C39.1104 37.8954 40.0058 37 41.1104 37C42.2149 37 43.1104 37.8954 43.1104 39Z" stroke="#999B9F" stroke-width="1.5" stroke-linecap="round" stroke-linejoin="round"/>
<path fill-rule="evenodd" clip-rule="evenodd" d="M46.1104 47.5C46.1104 49.433 43.8714 51 41.1104 51C38.3494 51 36.1104 49.433 36.1104 47.5C36.1104 45.567 38.3494 44 41.1104 44C43.8714 44 46.1104 45.567 46.1104 47.5Z" stroke="#999B9F" stroke-width="1.5" stroke-linecap="round" stroke-linejoin="round"/>
<path d="M50.8604 37C50.8604 36.5858 50.5246 36.25 50.1104 36.25C49.6961 36.25 49.3604 36.5858 49.3604 37H50.8604ZM49.3604 39C49.3604 39.4142 49.6961 39.75 50.1104 39.75C50.5246 39.75 50.8604 39.4142 50.8604 39H49.3604ZM50.8604 39C50.8604 38.5858 50.5246 38.25 50.1104 38.25C49.6961 38.25 49.3604 38.5858 49.3604 39H50.8604ZM49.3604 41C49.3604 41.4142 49.6961 41.75 50.1104 41.75C50.5246 41.75 50.8604 41.4142 50.8604 41H49.3604ZM50.1104 39.75C50.5246 39.75 50.8604 39.4142 50.8604 39C50.8604 38.5858 50.5246 38.25 50.1104 38.25V39.75ZM48.1104 38.25C47.6961 38.25 47.3604 38.5858 47.3604 39C47.3604 39.4142 47.6961 39.75 48.1104 39.75V38.25ZM50.1104 38.25C49.6961 38.25 49.3604 38.5858 49.3604 39C49.3604 39.4142 49.6961 39.75 50.1104 39.75V38.25ZM52.1104 39.75C52.5246 39.75 52.8604 39.4142 52.8604 39C52.8604 38.5858 52.5246 38.25 52.1104 38.25V39.75ZM49.3604 37V39H50.8604V37H49.3604ZM49.3604 39V41H50.8604V39H49.3604ZM50.1104 38.25H48.1104V39.75H50.1104V38.25ZM50.1104 39.75H52.1104V38.25H50.1104V39.75Z" fill="#999B9F"/>
</g>
<defs>
<filter id="filter0_d_735_2031" x="0.110352" y="0" width="88" height="88" filterUnits="userSpaceOnUse" color-interpolation-filters="sRGB">
<feFlood flood-opacity="0" result="BackgroundImageFix"/>
<feColorMatrix in="SourceAlpha" type="matrix" values="0 0 0 0 0 0 0 0 0 0 0 0 0 0 0 0 0 0 127 0" result="hardAlpha"/>
<feMorphology radius="2" operator="dilate" in="SourceAlpha" result="effect1_dropShadow_735_2031"/>
<feOffset/>
<feGaussianBlur stdDeviation="7"/>
<feComposite in2="hardAlpha" operator="out"/>
<feColorMatrix type="matrix" values="0 0 0 0 0.0208333 0 0 0 0 0.0208333 0 0 0 0 0.0208333 0 0 0 0.1 0"/>
<feBlend mode="normal" in2="BackgroundImageFix" result="effect1_dropShadow_735_2031"/>
<feBlend mode="normal" in="SourceGraphic" in2="effect1_dropShadow_735_2031" result="shape"/>
</filter>
</defs>
</svg>
