<svg width="16" height="16" viewBox="0 0 16 16" fill="none" xmlns="http://www.w3.org/2000/svg">
<g clip-path="url(#clip0_327_566)">
<path d="M15.9924 8.14945C15.9924 7.49394 15.9379 7.01559 15.8201 6.51953H8.15936V9.47819H12.656C12.5654 10.2135 12.0759 11.3208 10.9879 12.0648L10.9727 12.1639L13.3949 13.9973L13.5627 14.0137C15.1039 12.6229 15.9924 10.5766 15.9924 8.14945Z" fill="#4285F4"/>
<path d="M8.15936 15.9446C10.3624 15.9446 12.2118 15.2359 13.5627 14.0134L10.9879 12.0646C10.2989 12.5341 9.37418 12.8618 8.15936 12.8618C6.00168 12.8618 4.17036 11.4711 3.51755 9.54883L3.42186 9.55677L0.903238 11.4613L0.8703 11.5508C2.21205 14.1551 4.96811 15.9446 8.15936 15.9446Z" fill="#34A853"/>
<path d="M3.51756 9.54887C3.34531 9.05281 3.24562 8.52127 3.24562 7.97208C3.24562 7.42283 3.34531 6.89135 3.5085 6.39529L3.50394 6.28964L0.95375 4.35449L0.870312 4.39327C0.317313 5.474 0 6.68762 0 7.97208C0 9.25654 0.317313 10.4701 0.870312 11.5508L3.51756 9.54887Z" fill="#FBBC05"/>
<path d="M8.15936 3.08269C9.69149 3.08269 10.725 3.72934 11.3143 4.26974L13.6171 2.07285C12.2028 0.788397 10.3624 0 8.15936 0C4.96811 0 2.21205 1.78937 0.8703 4.39371L3.50849 6.39573C4.17036 4.47347 6.00168 3.08269 8.15936 3.08269Z" fill="#EB4335"/>
</g>
<defs>
<clipPath id="clip0_327_566">
<rect width="16" height="16" fill="white"/>
</clipPath>
</defs>
</svg>
