<svg width="24" height="24" viewBox="0 0 24 24" fill="none" xmlns="http://www.w3.org/2000/svg">
<path fill-rule="evenodd" clip-rule="evenodd" d="M9.38143 13.7556C9.38143 13.2324 8.83317 13.0241 8.63819 13.504C8.0378 14.9799 8.33786 16.6695 9.40976 17.8484C10.0731 18.5798 11.0145 18.9969 12.0019 18.9969C12.9893 18.9969 13.9307 18.5798 14.5941 17.8484C16.0254 16.273 16.0254 13.8679 14.5941 12.2925L12.2444 9.77616C12.1814 9.70885 12.0933 9.67065 12.0011 9.67065C11.9089 9.67065 11.8208 9.70885 11.7578 9.77616C11.693 9.84721 11.6573 9.94 11.6578 10.0361V13.7556C11.6784 14.3843 11.1865 14.9112 10.5579 14.9338H10.4813C9.85267 14.9112 9.36082 14.3843 9.38143 13.7556Z" stroke="#999B9F" stroke-width="1.5" stroke-linecap="round" stroke-linejoin="round"/>
<path fill-rule="evenodd" clip-rule="evenodd" d="M16.433 9.04796C18.6708 11.3403 18.6708 14.9995 16.433 17.2919C15.21 18.396 13.6196 19.0049 11.9719 19C10.3412 19.0047 8.76861 18.3948 7.56749 17.2919C5.32972 14.9995 5.32972 11.3403 7.56749 9.04796L11.2403 5.31345C11.6614 4.89552 12.3408 4.89552 12.7618 5.31345L16.433 9.04796Z" stroke="#999B9F" stroke-width="1.5" stroke-linecap="round" stroke-linejoin="round"/>
</svg>
