<svg width="132" height="48" viewBox="0 0 132 48" fill="none" xmlns="http://www.w3.org/2000/svg">
<mask id="mask0_329_1161" style="mask-type:alpha" maskUnits="userSpaceOnUse" x="11" y="12" width="24" height="24">
<rect x="11" y="12" width="24" height="24" fill="white"/>
</mask>
<g mask="url(#mask0_329_1161)">
<path d="M22 33L18.825 30.15C17.625 29.0667 16.5958 28.1 15.7375 27.25C14.8792 26.4 14.1708 25.6 13.6125 24.85C13.0542 24.1 12.6458 23.375 12.3875 22.675C12.1292 21.975 12 21.2417 12 20.475C12 18.9083 12.525 17.6042 13.575 16.5625C14.625 15.5208 15.9333 15 17.5 15C18.3667 15 19.1917 15.1833 19.975 15.55C20.7583 15.9167 21.4333 16.4333 22 17.1C22.5667 16.4333 23.2417 15.9167 24.025 15.55C24.8083 15.1833 25.6333 15 26.5 15C27.9 15 29.175 15.4917 30.325 16.475C31.475 17.4583 32.05 18.7917 32.05 20.475C32.05 20.7083 32.0333 20.9542 32 21.2125C31.9667 21.4708 31.9167 21.7333 31.85 22H29.725C29.8083 21.7 29.875 21.4167 29.925 21.15C29.975 20.8833 30 20.6333 30 20.4C30 19.15 29.5833 18.2708 28.75 17.7625C27.9167 17.2542 27.1667 17 26.5 17C25.65 17 24.9167 17.2292 24.3 17.6875C23.6833 18.1458 23.1083 18.75 22.575 19.5H21.425C20.9083 18.75 20.3208 18.1458 19.6625 17.6875C19.0042 17.2292 18.2833 17 17.5 17C16.55 17 15.7292 17.3292 15.0375 17.9875C14.3458 18.6458 14 19.475 14 20.475C14 21.025 14.1167 21.5833 14.35 22.15C14.5833 22.7167 15 23.3708 15.6 24.1125C16.2 24.8542 17.0167 25.7208 18.05 26.7125C19.0833 27.7042 20.4 28.9 22 30.3C22.4333 29.9167 22.9417 29.475 23.525 28.975C24.1083 28.475 24.575 28.0583 24.925 27.725L26.35 29.15C25.9833 29.4833 25.5167 29.8958 24.95 30.3875C24.3833 30.8792 23.8833 31.3167 23.45 31.7L22 33ZM26 26V24H34V26H26Z" fill="white"/>
</g>
<rect x="0.5" y="0.5" width="45" height="47" rx="22.5" stroke="white"/>
<mask id="mask1_329_1161" style="mask-type:alpha" maskUnits="userSpaceOnUse" x="97" y="12" width="24" height="24">
<rect x="97" y="12" width="24" height="24" fill="#D9D9D9"/>
</mask>
<g mask="url(#mask1_329_1161)">
<path d="M108 33L104.825 30.15C103.625 29.0667 102.596 28.1 101.737 27.25C100.879 26.4 100.171 25.6 99.6125 24.85C99.0542 24.1 98.6458 23.375 98.3875 22.675C98.1292 21.975 98 21.2417 98 20.475C98 18.9083 98.525 17.6042 99.575 16.5625C100.625 15.5208 101.933 15 103.5 15C104.367 15 105.192 15.1833 105.975 15.55C106.758 15.9167 107.433 16.4333 108 17.1C108.567 16.4333 109.242 15.9167 110.025 15.55C110.808 15.1833 111.633 15 112.5 15C113.85 15 114.983 15.3792 115.9 16.1375C116.817 16.8958 117.442 17.85 117.775 19H115.65C115.35 18.3333 114.908 17.8333 114.325 17.5C113.742 17.1667 113.133 17 112.5 17C111.65 17 110.917 17.2292 110.3 17.6875C109.683 18.1458 109.108 18.75 108.575 19.5H107.425C106.908 18.75 106.321 18.1458 105.662 17.6875C105.004 17.2292 104.283 17 103.5 17C102.55 17 101.729 17.3292 101.038 17.9875C100.346 18.6458 100 19.475 100 20.475C100 21.025 100.117 21.5833 100.35 22.15C100.583 22.7167 101 23.3708 101.6 24.1125C102.2 24.8542 103.017 25.7208 104.05 26.7125C105.083 27.7042 106.4 28.9 108 30.3C108.433 29.9167 108.942 29.475 109.525 28.975C110.108 28.475 110.575 28.0583 110.925 27.725L112.35 29.15C111.983 29.4833 111.517 29.8958 110.95 30.3875C110.383 30.8792 109.883 31.3167 109.45 31.7L108 33ZM115 29V26H112V24H115V21H117V24H120V26H117V29H115Z" fill="white"/>
</g>
<rect x="86.5" y="0.5" width="45" height="47" rx="22.5" stroke="white"/>
</svg>
