<svg width="79" height="79" viewBox="0 0 79 79" fill="none" xmlns="http://www.w3.org/2000/svg">
<path d="M78.799 37.4035C78.799 59.2163 59.0707 78.9998 37.3105 78.9998C15.5503 78.9998 0 61.3166 0 39.4999C0 17.6832 15.5503 0 37.3105 0C59.0707 0 78.799 15.5907 78.799 37.4074V37.4035Z" fill="#20242F"/>
<path d="M68.2732 39.33C68.2732 56.113 53.097 71.3326 36.3536 71.3326C19.6101 71.3326 7.655 57.7238 7.655 40.9408C7.655 24.1578 19.614 10.549 36.3536 10.549C53.0931 10.549 68.2732 22.543 68.2732 39.326V39.33Z" fill="white"/>
<path d="M72.1087 36.4397C72.1087 53.7793 56.4245 69.5043 39.1298 69.5043C21.835 69.5043 9.4743 55.4454 9.4743 38.1057C9.4743 20.7661 21.835 6.70718 39.1298 6.70718C56.4245 6.70718 72.1087 19.1 72.1087 36.4397Z" fill="#20242F"/>
<path d="M59.9095 18.5475C59.9095 20.7663 57.9051 22.7759 55.6921 22.7759C53.479 22.7759 51.9 20.9795 51.9 18.7607C51.9 16.5419 53.479 14.7456 55.6921 14.7456C57.9051 14.7456 59.9095 16.3288 59.9095 18.5475Z" fill="white"/>
<path d="M66.2492 27.2882C66.2492 28.5279 65.127 29.657 63.8866 29.657C62.6462 29.657 61.7641 28.6503 61.7641 27.4106C61.7641 26.1709 62.6462 25.1602 63.8866 25.1602C65.127 25.1602 66.2492 26.0485 66.2492 27.2882Z" fill="white"/>
</svg>
