<svg width="24" height="24" viewBox="0 0 24 24" fill="none" xmlns="http://www.w3.org/2000/svg">
<g clip-path="url(#clip0_0_26)">
<path d="M12.0001 18.666C8.31808 18.666 5.33342 15.6813 5.33342 11.9993C5.33342 8.31734 8.31808 5.33267 12.0001 5.33267C15.6821 5.33268 18.6667 8.31734 18.6667 11.9993" stroke="#7D7D7D" stroke-width="1.5" stroke-linecap="round"/>
<path d="M13.0207 18.159C12.6967 18.4937 12.35 18.6663 12 18.6663C11.65 18.6663 11.3034 18.4937 10.98 18.159C10.656 17.8237 10.362 17.3323 10.1147 16.7137C9.86671 16.0943 9.67004 15.3603 9.53604 14.551C9.39935 13.7075 9.33157 12.8542 9.33337 11.9997C9.33337 11.1243 9.40204 10.257 9.53604 9.44834C9.67004 8.63967 9.86671 7.90501 10.1147 7.28567C10.362 6.66634 10.656 6.17567 10.9794 5.84034C11.3034 5.50634 11.65 5.33301 12 5.33301C12.35 5.33301 12.6967 5.50567 13.02 5.84034C13.344 6.17567 13.638 6.66701 13.8854 7.28567C14.1334 7.90501 14.33 8.63901 14.4634 9.44834C14.5974 10.257 14.6667 11.1243 14.6667 11.9997M5.33337 11.9997H10.6667M18.6667 11.9997H13.3334" stroke="#7D7D7D" stroke-width="1.5" stroke-linecap="round"/>
<path fill-rule="evenodd" clip-rule="evenodd" d="M14.8137 15.8713C14.8137 15.5922 14.5213 15.4811 14.4173 15.7371C14.0971 16.5243 14.2571 17.4255 14.8289 18.0544C15.1827 18.4445 15.6848 18.667 16.2115 18.667C16.7382 18.667 17.2403 18.4445 17.5941 18.0544C18.3576 17.2141 18.3576 15.9312 17.5941 15.0909L16.3408 13.7487C16.3072 13.7128 16.2602 13.6924 16.2111 13.6924C16.1619 13.6924 16.1149 13.7128 16.0813 13.7487C16.0467 13.7866 16.0277 13.836 16.0279 13.8873V15.8713C16.0389 16.2066 15.7766 16.4877 15.4413 16.4997H15.4004C15.0651 16.4877 14.8027 16.2066 14.8137 15.8713Z" stroke="#7D7D7D" stroke-width="1.5" stroke-linecap="round" stroke-linejoin="round"/>
</g>
<defs>
<clipPath id="clip0_0_26">
<rect width="16" height="16" fill="white" transform="translate(4 4)"/>
</clipPath>
</defs>
</svg>
