<svg width="47" height="58" viewBox="0 0 47 58" fill="none" xmlns="http://www.w3.org/2000/svg">
<path d="M30.6003 3.60276C30.6003 3.60276 37.8264 3.60276 45.0525 8.42051L30.6003 3.60276ZM16.148 3.60276C16.148 3.60276 8.92192 3.60276 1.6958 8.42051L16.148 3.60276Z" fill="black"/>
<path d="M30.6003 3.60276C30.6003 3.60276 37.8264 3.60276 45.0525 8.42051M16.148 3.60276C16.148 3.60276 8.92192 3.60276 1.6958 8.42051" stroke="white" stroke-width="2" stroke-miterlimit="10" stroke-linecap="round" stroke-linejoin="round"/>
<path d="M44.6877 2.00447L45.9976 9.25966L38.7424 10.5696M2.31216 2.00447L1.00224 9.25966L8.25742 10.5696M45.0846 42.6421C45.0846 50.4656 38.7424 56.8087 30.918 56.8087C23.0935 56.8087 16.7514 50.4656 16.7514 42.6421M45.0856 41.8895V31.5584C45.1022 31.163 45.0417 30.7683 44.9057 30.3966C44.7698 30.025 44.5619 29.6838 44.2941 29.3925C44.0262 29.1012 43.7036 28.8655 43.3447 28.6989C42.9858 28.5323 42.5975 28.438 42.2022 28.4214C41.8068 28.4048 41.412 28.4663 41.0404 28.6023C40.6688 28.7382 40.3276 28.9461 40.0363 29.2139C39.745 29.4818 39.5093 29.8044 39.3427 30.1633C39.176 30.5222 39.0817 30.9105 39.0652 31.3058" stroke="white" stroke-width="2" stroke-miterlimit="10" stroke-linecap="round" stroke-linejoin="round"/>
<path d="M33.0417 31.1053C33.0583 30.7099 33.1526 30.3217 33.3192 29.9628C33.4859 29.6038 33.7215 29.2812 34.0128 29.0134C34.3041 28.7456 34.6453 28.5377 35.017 28.4017C35.3886 28.2657 35.7834 28.2043 36.1787 28.2209C36.5741 28.2375 36.9623 28.3318 37.3213 28.4984C37.6802 28.665 38.0028 28.9007 38.2706 29.192C38.5385 29.4833 38.7463 29.8245 38.8823 30.1961C39.0183 30.5677 39.0798 30.9625 39.0632 31.3579" stroke="white" stroke-width="2" stroke-miterlimit="10" stroke-linecap="round" stroke-linejoin="round"/>
<path d="M33.0457 30.9901C33.1098 30.1936 33.4876 29.4552 34.0961 28.9373C34.7046 28.4193 35.4939 28.1644 36.2904 28.2284C37.0869 28.2925 37.8254 28.6703 38.3433 29.2788C38.8612 29.8873 39.1162 30.6767 39.0521 31.4732M26.9842 30.6944C27.0532 29.9107 27.426 29.185 28.023 28.6724C28.6199 28.1599 29.3936 27.9011 30.1788 27.9513C30.964 28.0016 31.6984 28.3569 32.2251 28.9414C32.7518 29.5258 33.029 30.2931 32.9976 31.0793M26.9832 30.6624V11.4335C26.9832 10.6343 26.6657 9.86788 26.1006 9.30279C25.5355 8.7377 24.7691 8.42024 23.97 8.42024C23.1708 8.42024 22.4044 8.7377 21.8393 9.30279C21.2742 9.86788 20.9567 10.6343 20.9567 11.4335V35.3588M18.408 30.3276L16.7223 28.4214C16.1671 27.8465 15.4064 27.5158 14.6074 27.5019C13.8084 27.488 13.0366 27.7921 12.4618 28.3472C11.887 28.9023 11.5562 29.6631 11.5423 30.4621C11.5284 31.2611 11.8325 32.0329 12.3876 32.6077L13.9561 34.6573M13.91 34.6052C15.5908 36.4513 16.8135 39.0541 16.7514 42.8034M25.548 5.63051C25.8538 5.153 26.0184 4.59874 26.0226 4.03171C26.0269 3.46467 25.8708 2.90799 25.5722 2.4259C25.2737 1.94381 24.8449 1.55597 24.3353 1.30715C23.8258 1.05834 23.2563 0.958682 22.6925 1.01969C22.1288 1.0807 21.5938 1.29989 21.1492 1.65195C20.7047 2.00401 20.3688 2.47461 20.1803 3.0094C19.9918 3.5442 19.9584 4.12141 20.0839 4.67439C20.2094 5.22738 20.4887 5.7336 20.8896 6.13464" stroke="white" stroke-width="2" stroke-miterlimit="10" stroke-linecap="round" stroke-linejoin="round"/>
</svg>
