<svg width="32" height="32" viewBox="0 0 32 32" fill="none" xmlns="http://www.w3.org/2000/svg">
<path fill-rule="evenodd" clip-rule="evenodd" d="M8.66675 25.334C7.95222 25.334 7.29196 24.9528 6.9347 24.334C6.57743 23.7152 6.57743 22.9528 6.9347 22.334C7.29196 21.7152 7.95222 21.334 8.66675 21.334H23.3334C24.438 21.334 25.3334 22.2294 25.3334 23.334C25.3334 24.4386 24.438 25.334 23.3334 25.334H8.66675Z" stroke="#7D7D7D" stroke-width="1.5" stroke-linecap="round" stroke-linejoin="round"/>
<path fill-rule="evenodd" clip-rule="evenodd" d="M6.66675 10.667C8.35341 13.6377 12.0867 18.0923 16.0001 10.667C19.9134 18.0923 23.6467 13.6377 25.3334 10.667L23.4667 21.3337H8.53341L6.66675 10.667Z" stroke="#7D7D7D" stroke-width="1.5" stroke-linecap="round" stroke-linejoin="round"/>
<path fill-rule="evenodd" clip-rule="evenodd" d="M16 10.667C14.8954 10.667 14 9.77156 14 8.66699C14 7.56242 14.8954 6.66699 16 6.66699C17.1046 6.66699 18 7.56242 18 8.66699C18 9.19743 17.7893 9.70613 17.4142 10.0812C17.0391 10.4563 16.5304 10.667 16 10.667Z" stroke="#7D7D7D" stroke-width="1.5" stroke-linecap="round" stroke-linejoin="round"/>
<path fill-rule="evenodd" clip-rule="evenodd" d="M25.3333 10.6667C24.597 10.6667 24 10.0697 24 9.33333C24 8.59695 24.597 8 25.3333 8C26.0697 8 26.6667 8.59695 26.6667 9.33333C26.6667 9.68696 26.5262 10.0261 26.2761 10.2761C26.0261 10.5262 25.687 10.6667 25.3333 10.6667Z" stroke="#7D7D7D" stroke-width="1.5" stroke-linecap="round" stroke-linejoin="round"/>
<path fill-rule="evenodd" clip-rule="evenodd" d="M6.66671 10.6667C5.93033 10.6667 5.33337 10.0697 5.33337 9.33333C5.33337 8.59695 5.93033 8 6.66671 8C7.40309 8 8.00004 8.59695 8.00004 9.33333C8.00004 9.68696 7.85956 10.0261 7.60952 10.2761C7.35947 10.5262 7.02033 10.6667 6.66671 10.6667Z" stroke="#7D7D7D" stroke-width="1.5" stroke-linecap="round" stroke-linejoin="round"/>
</svg>
