<svg width="32" height="32" viewBox="0 0 32 32" fill="none" xmlns="http://www.w3.org/2000/svg">
<path fill-rule="evenodd" clip-rule="evenodd" d="M22.6672 22.9789C22.6256 21.7428 21.597 20.7704 20.3605 20.7981C19.124 20.8259 18.1401 21.8435 18.154 23.0803C18.1679 24.317 19.1744 25.3123 20.4112 25.3122C21.6783 25.2903 22.688 24.246 22.6672 22.9789Z" stroke="white" stroke-width="1.5" stroke-linecap="round" stroke-linejoin="round"/>
<path fill-rule="evenodd" clip-rule="evenodd" d="M14.7698 15.9789C14.801 17.88 13.2856 19.4467 11.3845 19.4789C9.48387 19.446 7.96928 17.8795 8.00047 15.9789C7.96928 14.0782 9.48387 12.5117 11.3845 12.4789C13.2856 12.511 14.801 14.0777 14.7698 15.9789Z" stroke="white" stroke-width="1.5" stroke-linecap="round" stroke-linejoin="round"/>
<path fill-rule="evenodd" clip-rule="evenodd" d="M21.5392 8.97888C21.5591 9.79818 21.1334 10.5639 20.427 10.9794C19.7205 11.3949 18.8444 11.3949 18.138 10.9794C17.4316 10.5639 17.0059 9.79818 17.0258 8.97888C17.0059 8.15957 17.4316 7.39383 18.138 6.97832C18.8444 6.56281 19.7205 6.56281 20.427 6.97832C21.1334 7.39383 21.5591 8.15957 21.5392 8.97888Z" stroke="white" stroke-width="1.5" stroke-linecap="round" stroke-linejoin="round"/>
<path d="M18.284 22.0467C18.6219 22.2863 19.09 22.2065 19.3296 21.8686C19.5691 21.5307 19.4893 21.0625 19.1514 20.823L18.284 22.0467ZM14.4848 17.515C14.1468 17.2754 13.6787 17.3552 13.4392 17.6931C13.1996 18.0311 13.2794 18.4992 13.6173 18.7387L14.4848 17.515ZM18.0969 11.0744C18.3993 10.7913 18.415 10.3167 18.1319 10.0143C17.8488 9.71191 17.3742 9.69625 17.0718 9.97933L18.0969 11.0744ZM13.5438 13.282C13.2414 13.5651 13.2258 14.0397 13.5088 14.3421C13.7919 14.6445 14.2665 14.6601 14.5689 14.377L13.5438 13.282ZM19.1514 20.823L14.4848 17.515L13.6173 18.7387L18.284 22.0467L19.1514 20.823ZM17.0718 9.97933L13.5438 13.282L14.5689 14.377L18.0969 11.0744L17.0718 9.97933Z" fill="white"/>
</svg>
