<svg width="64" height="64" viewBox="0 0 64 64" fill="none" xmlns="http://www.w3.org/2000/svg">
<rect width="64" height="64" rx="32" fill="black" fill-opacity="0.08"/>
<path fill-rule="evenodd" clip-rule="evenodd" d="M22.6665 30.6667V33.3334C22.6665 37.7516 26.2482 41.3334 30.6665 41.3334H33.3332C37.7514 41.3334 41.3332 37.7516 41.3332 33.3334V30.6667C41.3332 26.2484 37.7514 22.6667 33.3332 22.6667H30.6665C26.2482 22.6667 22.6665 26.2484 22.6665 30.6667Z" stroke="#999B9F" stroke-width="1.5" stroke-linecap="round" stroke-linejoin="round"/>
<path d="M31.9997 32V37.3333" stroke="#999B9F" stroke-width="1.5" stroke-linecap="round"/>
<path d="M31.9997 28.6667C31.6321 28.6667 31.333 28.3676 31.333 28C31.333 27.6324 31.6321 27.3334 31.9997 27.3334C32.3673 27.3334 32.6663 27.6324 32.6663 28C32.6663 28.3676 32.3673 28.6667 31.9997 28.6667Z" fill="#999B9F"/>
<path d="M31.9998 26.6667C32.7362 26.6667 33.3332 27.2636 33.3332 28C33.3332 28.7364 32.7362 29.3334 31.9998 29.3334C31.2635 29.3334 30.6665 28.7364 30.6665 28C30.6665 27.2636 31.2635 26.6667 31.9998 26.6667Z" fill="#999B9F"/>
</svg>
