<svg width="24" height="24" viewBox="0 0 24 24" fill="none" xmlns="http://www.w3.org/2000/svg">
<g clip-path="url(#clip0_0_121)">
<path d="M12.0001 18.6666C8.31808 18.6666 5.33342 15.682 5.33342 12C5.33342 8.31795 8.31808 5.33328 12.0001 5.33329C15.6821 5.33329 18.6667 8.31795 18.6667 12" stroke="#999B9F" stroke-width="1.5" stroke-linecap="round"/>
<path d="M13.0207 18.1594C12.6967 18.494 12.35 18.6667 12 18.6667C11.65 18.6667 11.3034 18.494 10.98 18.1594C10.656 17.824 10.362 17.3327 10.1147 16.714C9.86671 16.0947 9.67004 15.3607 9.53604 14.5514C9.39935 13.7078 9.33157 12.8546 9.33337 12C9.33337 11.1247 9.40204 10.2574 9.53604 9.44871C9.67004 8.64004 9.86671 7.90537 10.1147 7.28604C10.362 6.66671 10.656 6.17604 10.9794 5.84071C11.3034 5.50671 11.65 5.33337 12 5.33337C12.35 5.33337 12.6967 5.50604 13.02 5.84071C13.344 6.17604 13.638 6.66737 13.8854 7.28604C14.1334 7.90537 14.33 8.63937 14.4634 9.44871C14.5974 10.2574 14.6667 11.1247 14.6667 12M5.33337 12H10.6667M18.6667 12H13.3334" stroke="#999B9F" stroke-width="1.5" stroke-linecap="round"/>
<path fill-rule="evenodd" clip-rule="evenodd" d="M14.8137 15.8708C14.8137 15.5917 14.5213 15.4806 14.4173 15.7366C14.0971 16.5239 14.2571 17.425 14.8289 18.0539C15.1827 18.444 15.6848 18.6665 16.2115 18.6665C16.7382 18.6665 17.2403 18.444 17.5941 18.0539C18.3576 17.2136 18.3576 15.9307 17.5941 15.0904L16.3408 13.7482C16.3072 13.7123 16.2602 13.6919 16.2111 13.6919C16.1619 13.6919 16.1149 13.7123 16.0813 13.7482C16.0467 13.7861 16.0277 13.8356 16.0279 13.8868V15.8708C16.0389 16.2061 15.7766 16.4872 15.4413 16.4992H15.4004C15.0651 16.4872 14.8027 16.2061 14.8137 15.8708Z" stroke="#999B9F" stroke-width="1.5" stroke-linecap="round" stroke-linejoin="round"/>
</g>
<defs>
<clipPath id="clip0_0_121">
<rect width="16" height="16" fill="white" transform="translate(4 4)"/>
</clipPath>
</defs>
</svg>
