<svg width="24" height="24" viewBox="0 0 24 24" fill="none" xmlns="http://www.w3.org/2000/svg">
<path fill-rule="evenodd" clip-rule="evenodd" d="M9.38118 13.7559C9.38118 13.2326 8.83292 13.0243 8.63795 13.5042C8.03756 14.9802 8.33762 16.6697 9.40951 17.8487C10.0729 18.58 11.0143 18.9971 12.0017 18.9971C12.989 18.9971 13.9305 18.58 14.5938 17.8487C16.0252 16.2732 16.0252 13.8682 14.5938 12.2927L12.2441 9.7764C12.1811 9.70909 12.093 9.6709 12.0008 9.6709C11.9086 9.6709 11.8205 9.70909 11.7575 9.7764C11.6928 9.84745 11.6571 9.94024 11.6575 10.0364V13.7559C11.6782 14.3846 11.1863 14.9114 10.5577 14.9341H10.481C9.85243 14.9114 9.36057 14.3846 9.38118 13.7559Z" stroke="#F6F6F6" stroke-width="1.5" stroke-linecap="round" stroke-linejoin="round"/>
<path fill-rule="evenodd" clip-rule="evenodd" d="M16.4327 9.04796C18.6705 11.3403 18.6705 14.9995 16.4327 17.2919C15.2097 18.396 13.6193 19.0049 11.9717 19C10.341 19.0047 8.76837 18.3948 7.56725 17.2919C5.32947 14.9995 5.32947 11.3403 7.56725 9.04796L11.2401 5.31345C11.6611 4.89552 12.3405 4.89552 12.7616 5.31345L16.4327 9.04796Z" stroke="#F6F6F6" stroke-width="1.5" stroke-linecap="round" stroke-linejoin="round"/>
</svg>
