<svg width="260" height="172" viewBox="0 0 260 172" fill="none" xmlns="http://www.w3.org/2000/svg">
<rect y="106" width="8" height="66" rx="4" fill="#EF4444"/>
<rect x="12" y="50" width="8" height="122" rx="4" fill="#22C55E"/>
<rect x="40" y="43" width="8" height="129" rx="4" fill="#EF4444"/>
<rect x="52" width="8" height="172" rx="4" fill="#22C55E"/>
<rect x="80" y="81" width="8" height="91" rx="4" fill="#EF4444"/>
<rect x="92" y="53" width="8" height="119" rx="4" fill="#22C55E"/>
<rect x="120" y="138" width="8" height="34" rx="4" fill="#EF4444"/>
<rect x="132" y="19" width="8" height="153" rx="4" fill="#22C55E"/>
<rect x="160" y="123" width="8" height="49" rx="4" fill="#EF4444"/>
<rect x="172" y="42" width="8" height="130" rx="4" fill="#22C55E"/>
<rect x="200" y="145" width="8" height="27" rx="4" fill="#EF4444"/>
<rect x="212" y="51" width="8" height="121" rx="4" fill="#22C55E"/>
<rect x="240" y="143" width="8" height="29" rx="4" fill="#EF4444"/>
<rect x="252" width="8" height="172" rx="4" fill="#22C55E"/>
</svg>
