<svg width="32" height="31" viewBox="0 0 32 31" fill="none" xmlns="http://www.w3.org/2000/svg">
<path d="M13.8613 0.84611C14.7241 -0.281975 16.423 -0.281975 17.2857 0.84611C17.9314 1.6904 19.0962 1.93798 20.0295 1.42931C21.2765 0.749672 22.8285 1.44068 23.1579 2.82215C23.4043 3.85608 24.3677 4.556 25.4272 4.47092C26.8428 4.35724 27.9796 5.61976 27.7186 7.01575C27.5232 8.06055 28.1186 9.0918 29.1211 9.44501C30.4606 9.91694 30.9856 11.5327 30.1793 12.7018C29.5759 13.5768 29.7003 14.7611 30.4725 15.4915C31.5042 16.4675 31.3267 18.157 30.1146 18.8972C29.2074 19.4511 28.8394 20.5836 29.2478 21.5649C29.7933 22.8761 28.9439 24.3474 27.5355 24.5306C26.4815 24.6676 25.6847 25.5525 25.6586 26.6151C25.6237 28.0349 24.2492 29.0335 22.8882 28.6279C21.8695 28.3244 20.7817 28.8088 20.3256 29.7689C19.7163 31.0517 18.0545 31.4049 16.9761 30.4808C16.1689 29.7892 14.9781 29.7892 14.171 30.4808C13.0926 31.4049 11.4308 31.0517 10.8214 29.7689C10.3654 28.8088 9.27753 28.3244 8.25888 28.6279C6.89782 29.0335 5.52339 28.0349 5.48847 26.6151C5.46235 25.5525 4.66555 24.6676 3.61152 24.5306C2.2032 24.3474 1.35375 22.8761 1.89932 21.5649C2.30764 20.5836 1.93967 19.4511 1.03251 18.8972C-0.17958 18.157 -0.357164 16.4674 0.674558 15.4915C1.44673 14.7611 1.5712 13.5768 0.967767 12.7018C0.161501 11.5327 0.686489 9.91694 2.02597 9.44501C3.02847 9.0918 3.62386 8.06055 3.4285 7.01575C3.16746 5.61976 4.30425 4.35724 5.71987 4.47092C6.77937 4.556 7.74274 3.85608 7.98922 2.82215C8.31855 1.44068 9.87057 0.749672 11.1176 1.42931C12.0509 1.93798 13.2156 1.6904 13.8613 0.84611Z" fill="#FBBF24"/>
</svg>
