<svg width="32" height="32" viewBox="0 0 32 32" fill="none" xmlns="http://www.w3.org/2000/svg">
<path fill-rule="evenodd" clip-rule="evenodd" d="M8.66699 25.3333C7.95246 25.3333 7.29221 24.9521 6.93494 24.3333C6.57768 23.7145 6.57768 22.9521 6.93494 22.3333C7.29221 21.7144 7.95246 21.3333 8.66699 21.3333H23.3337C24.4382 21.3333 25.3337 22.2287 25.3337 23.3333C25.3337 24.4378 24.4382 25.3333 23.3337 25.3333H8.66699Z" stroke="#999B9F" stroke-width="1.5" stroke-linecap="round" stroke-linejoin="round"/>
<path fill-rule="evenodd" clip-rule="evenodd" d="M6.66699 10.6666C8.35366 13.6373 12.087 18.092 16.0003 10.6666C19.9137 18.092 23.647 13.6373 25.3337 10.6666L23.467 21.3333H8.53366L6.66699 10.6666Z" stroke="#999B9F" stroke-width="1.5" stroke-linecap="round" stroke-linejoin="round"/>
<path fill-rule="evenodd" clip-rule="evenodd" d="M16 10.6666C14.8954 10.6666 14 9.7712 14 8.66663C14 7.56206 14.8954 6.66663 16 6.66663C17.1046 6.66663 18 7.56206 18 8.66663C18 9.19706 17.7893 9.70577 17.4142 10.0808C17.0391 10.4559 16.5304 10.6666 16 10.6666Z" stroke="#999B9F" stroke-width="1.5" stroke-linecap="round" stroke-linejoin="round"/>
<path fill-rule="evenodd" clip-rule="evenodd" d="M25.3333 10.6667C24.597 10.6667 24 10.0697 24 9.33333C24 8.59695 24.597 8 25.3333 8C26.0697 8 26.6667 8.59695 26.6667 9.33333C26.6667 9.68696 26.5262 10.0261 26.2761 10.2761C26.0261 10.5262 25.687 10.6667 25.3333 10.6667Z" stroke="#999B9F" stroke-width="1.5" stroke-linecap="round" stroke-linejoin="round"/>
<path fill-rule="evenodd" clip-rule="evenodd" d="M6.66683 10.6667C5.93045 10.6667 5.3335 10.0697 5.3335 9.33333C5.3335 8.59695 5.93045 8 6.66683 8C7.40321 8 8.00016 8.59695 8.00016 9.33333C8.00016 9.68696 7.85969 10.0261 7.60964 10.2761C7.35959 10.5262 7.02045 10.6667 6.66683 10.6667Z" stroke="#999B9F" stroke-width="1.5" stroke-linecap="round" stroke-linejoin="round"/>
</svg>
