<svg width="72" height="71" viewBox="0 0 72 71" fill="none" xmlns="http://www.w3.org/2000/svg">
<g clip-path="url(#clip0_2158_2431)">
<rect width="32" height="32" transform="translate(13.3726 48) rotate(-45)" fill="#FBBF24"/>
<path fill-rule="evenodd" clip-rule="evenodd" d="M30.5508 55C30.0149 55 29.5197 54.7141 29.2517 54.25C28.9838 53.7859 28.9838 53.2141 29.2517 52.75C29.5197 52.2859 30.0149 52 30.5508 52H41.5508C42.3792 52 43.0508 52.6716 43.0508 53.5C43.0508 54.3284 42.3792 55 41.5508 55H30.5508Z" stroke="white" stroke-width="1.5" stroke-linecap="round" stroke-linejoin="round"/>
<path fill-rule="evenodd" clip-rule="evenodd" d="M29.0508 44C30.3158 46.228 33.1158 49.569 36.0508 44C38.9858 49.569 41.7858 46.228 43.0508 44L41.6508 52H30.4508L29.0508 44Z" stroke="white" stroke-width="1.5" stroke-linecap="round" stroke-linejoin="round"/>
<path fill-rule="evenodd" clip-rule="evenodd" d="M36.0508 44C35.2224 44 34.5508 43.3284 34.5508 42.5C34.5508 41.6716 35.2224 41 36.0508 41C36.8792 41 37.5508 41.6716 37.5508 42.5C37.5508 42.8978 37.3927 43.2794 37.1114 43.5607C36.8301 43.842 36.4486 44 36.0508 44Z" stroke="white" stroke-width="1.5" stroke-linecap="round" stroke-linejoin="round"/>
<path fill-rule="evenodd" clip-rule="evenodd" d="M43.0508 44C42.4985 44 42.0508 43.5523 42.0508 43C42.0508 42.4477 42.4985 42 43.0508 42C43.6031 42 44.0508 42.4477 44.0508 43C44.0508 43.2652 43.9454 43.5196 43.7579 43.7071C43.5704 43.8946 43.316 44 43.0508 44Z" stroke="white" stroke-width="1.5" stroke-linecap="round" stroke-linejoin="round"/>
<path fill-rule="evenodd" clip-rule="evenodd" d="M29.0508 44C28.4985 44 28.0508 43.5523 28.0508 43C28.0508 42.4477 28.4985 42 29.0508 42C29.6031 42 30.0508 42.4477 30.0508 43C30.0508 43.2652 29.9454 43.5196 29.7579 43.7071C29.5704 43.8946 29.316 44 29.0508 44Z" stroke="white" stroke-width="1.5" stroke-linecap="round" stroke-linejoin="round"/>
</g>
<path fill-rule="evenodd" clip-rule="evenodd" d="M37.849 8.515L36 5L34.151 8.515C34.0204 8.77186 33.8313 8.99449 33.599 9.165C33.3656 9.33638 33.0954 9.45107 32.81 9.5L29 10.247L31.66 13.428C32.0238 13.8267 32.1954 14.3643 32.13 14.9L31.624 19L35.132 17.3C35.4026 17.1689 35.6993 17.1006 36 17.1C36.2821 17.1009 36.5599 17.1694 36.81 17.3L40.4 18.895L39.894 14.844C39.83 14.3095 40.002 13.7736 40.365 13.376L43 10.247L39.19 9.5C38.9042 9.45122 38.6337 9.33652 38.4 9.165C38.1681 8.99438 37.9793 8.77175 37.849 8.515Z" stroke="#FBBF24" stroke-width="1.5" stroke-linecap="round" stroke-linejoin="round"/>
<path fill-rule="evenodd" clip-rule="evenodd" d="M9.23283 25.6766L8.00016 23.3333L6.7675 25.6766C6.68041 25.8479 6.55437 25.9963 6.3995 26.11C6.24387 26.2242 6.06378 26.3007 5.8735 26.3333L3.3335 26.8313L5.10683 28.952C5.34934 29.2178 5.46378 29.5762 5.42016 29.9333L5.08283 32.6666L7.4215 31.5333C7.60191 31.4459 7.7997 31.4004 8.00016 31.4C8.18824 31.4006 8.37343 31.4463 8.54016 31.5333L10.9335 32.5966L10.5962 29.896C10.5535 29.5396 10.6682 29.1823 10.9102 28.9173L12.6668 26.8313L10.1268 26.3333C9.93631 26.3008 9.75598 26.2243 9.60016 26.11C9.44553 25.9962 9.31972 25.8478 9.23283 25.6766Z" stroke="#FBBF24" stroke-width="1.5" stroke-linecap="round" stroke-linejoin="round"/>
<path fill-rule="evenodd" clip-rule="evenodd" d="M65.2328 25.6766L64.0002 23.3333L62.7675 25.6766C62.6804 25.8479 62.5544 25.9963 62.3995 26.11C62.2439 26.2242 62.0638 26.3007 61.8735 26.3333L59.3335 26.8313L61.1068 28.952C61.3493 29.2178 61.4638 29.5762 61.4202 29.9333L61.0828 32.6666L63.4215 31.5333C63.6019 31.4459 63.7997 31.4004 64.0002 31.4C64.1882 31.4006 64.3734 31.4463 64.5402 31.5333L66.9335 32.5966L66.5962 29.896C66.5535 29.5396 66.6682 29.1823 66.9102 28.9173L68.6668 26.8313L66.1268 26.3333C65.9363 26.3008 65.756 26.2243 65.6002 26.11C65.4455 25.9962 65.3197 25.8478 65.2328 25.6766Z" stroke="#FBBF24" stroke-width="1.5" stroke-linecap="round" stroke-linejoin="round"/>
<defs>
<clipPath id="clip0_2158_2431">
<rect width="32" height="32" fill="white" transform="translate(13.3726 48) rotate(-45)"/>
</clipPath>
</defs>
</svg>
